<svg width="96" height="96" viewBox="0 0 96 96" fill="none" xmlns="http://www.w3.org/2000/svg">
  <defs>
    <linearGradient id="g" x1="18" y1="15" x2="78" y2="83" gradientUnits="userSpaceOnUse">
      <stop stop-color="#39D7FF"/>
      <stop offset=".55" stop-color="#2F7BFF"/>
      <stop offset="1" stop-color="#67E8FF"/>
    </linearGradient>
  </defs>
  <path d="M48 6c12.3 0 23.1 5.4 30.4 14l-7.5 3.4C64.9 17.3 56.8 13.6 48 13.6c-18.9 0-34.3 15.4-34.3 34.4 0 8.8 3.3 16.8 8.8 22.9l-3.7 7.4C10.9 70.9 6 60.2 6 48 6 24.8 24.8 6 48 6Z" fill="url(#g)" opacity=".94"/>
  <path d="M86.7 34.5c4.1 13 .3 28-10.5 38.8-13.7 13.7-35.7 15.1-51 3.4l7.3-3.7c11.6 7.1 27 5.6 37.1-4.5 8.5-8.5 11.2-20.6 8.1-31.4l9-2.6Z" fill="url(#g)" opacity=".85"/>
  <path d="M22.8 26.4c11.3-11.3 29.7-11.3 41 0 10.5 10.5 11.3 27 2.3 38.4l-4.9-6.5c5.4-8.4 4.5-19.8-2.9-27.2-8.7-8.7-22.3-9.2-31.6-1.6l-3.9-3.1Z" fill="url(#g)" opacity=".76"/>
  <path d="M31.9 39.4c4.8-8.9 16-12.2 24.9-7.4 8.9 4.8 12.2 16 7.4 24.9-4.8 8.9-16 12.2-24.9 7.4-7.2-3.9-10.8-11.9-9.4-19.5l7.4 2.6c0 4.3 2.3 8.4 6.3 10.5 5.4 2.9 12.1.9 15-4.5 2.9-5.4.9-12.1-4.5-15-4.6-2.5-10.1-1.5-13.6 2l-8.6-1Z" fill="url(#g)"/>
  <circle cx="48" cy="48" r="6.7" fill="#1E90FF"/>
</svg>